<?xml version="1.0" encoding="UTF-8"?>
<svg xmlns="http://www.w3.org/2000/svg" xmlns:xlink="http://www.w3.org/1999/xlink" version="1.1" width="3840px" height="2160px" style="shape-rendering:geometricPrecision; text-rendering:geometricPrecision; image-rendering:optimizeQuality; fill-rule:evenodd; clip-rule:evenodd">
  <g>
    <path style="opacity:1" fill="#001734" d="M 1208.5,41.5 C 1682.33,41.5002 2156.17,41.5002 2630,41.5C 2749.85,52.0681 2845.19,105.401 2916,201.5C 2957.55,262.157 2980.39,329.323 2984.5,403C 2984.5,853.667 2984.5,1304.33 2984.5,1755C 2976.88,1876.94 2924.54,1974.28 2827.5,2047C 2768.33,2088.73 2702.49,2112.23 2630,2117.5C 2156.33,2117.5 1682.67,2117.5 1209,2117.5C 1075.2,2105.3 973.531,2041.96 904,1927.5C 874.051,1873.87 857.551,1816.37 854.5,1755C 854.501,1303.72 854.501,852.724 854.5,402C 862.774,280.909 915.107,184.243 1011.5,112C 1070.62,70.348 1136.29,46.848 1208.5,41.5 Z"></path>
  </g>
  <g>
    <path style="opacity:1" fill="#00a9fe" d="M 1535.5,569.5 C 1576,569.503 1616.5,569.503 1657,569.5C 1715.84,571.606 1772.67,584.106 1827.5,607C 1934.56,657.685 1993.56,742.351 2004.5,861C 2007.1,906.779 2002.27,951.946 1990,996.5C 1964.19,1073.98 1915.02,1131.48 1842.5,1169C 1801.5,1188.33 1758.5,1201 1713.5,1207C 1691.01,1209.87 1668.51,1212.03 1646,1213.5C 1619.61,1213.47 1592.94,1213.47 1566,1213.5C 1560,1212.83 1554,1212.17 1548,1211.5C 1541.24,1211.69 1534.4,1211.69 1527.5,1211.5C 1526.67,1308.5 1526.17,1405.5 1526,1502.5C 1524.33,1506.17 1521.5,1508.33 1517.5,1509C 1458.79,1509.49 1400.29,1509.66 1342,1509.5C 1337.56,1508.06 1334.89,1505.06 1334,1500.5C 1333.33,1194.17 1333.33,887.833 1334,581.5C 1334.74,578.427 1336.57,576.26 1339.5,575C 1405.27,573.29 1470.61,571.457 1535.5,569.5 Z"></path>
  </g>
  <g>
    <path style="opacity:1" fill="#001734" d="M 1542.5,744.5 C 1576.66,744.67 1613.32,744.837 1652.5,745C 1685.75,746.902 1717.42,755.569 1747.5,771C 1787.57,796.437 1808.9,833.104 1811.5,881C 1810.68,885.923 1810.68,890.59 1811.5,895C 1810.74,959.861 1780.07,1003.86 1719.5,1027C 1689.71,1036.89 1659.21,1043.06 1628,1045.5C 1600.67,1045.5 1573.33,1045.5 1546,1045.5C 1539.62,1044.59 1533.45,1043.93 1527.5,1043.5C 1527.33,944.499 1527.5,845.499 1528,746.5C 1532.93,745.856 1537.77,745.19 1542.5,744.5 Z"></path>
  </g>
  <g>
    <path style="opacity:1" fill="#00a9fe" d="M 2349.5,789.5 C 2398.89,787.836 2448.23,790.669 2497.5,798C 2523.05,801.96 2547.71,808.96 2571.5,819C 2573.71,820.873 2575.54,823.04 2577,825.5C 2578.65,878.788 2578.98,932.122 2578,985.5C 2577.22,987.286 2576.05,988.786 2574.5,990C 2569.89,991.29 2565.22,991.624 2560.5,991C 2512.32,967.083 2461.49,953.583 2408,950.5C 2377.12,946.377 2346.29,948.211 2315.5,956C 2292.62,965.26 2283.45,982.094 2288,1006.5C 2295.04,1020.87 2305.54,1032.04 2319.5,1040C 2355.16,1058.99 2392.16,1074.99 2430.5,1088C 2473.12,1105.46 2512.78,1127.8 2549.5,1155C 2598.17,1198.39 2620.17,1252.39 2615.5,1317C 2607.01,1400.33 2565.01,1459.99 2489.5,1496C 2444.94,1514.84 2398.77,1525.34 2351,1527.5C 2291.9,1529.91 2233.07,1524.41 2174.5,1511C 2150.83,1505.22 2128.17,1496.89 2106.5,1486C 2103.57,1483.74 2101.4,1480.9 2100,1477.5C 2099.33,1422.5 2099.33,1367.5 2100,1312.5C 2101.71,1307.96 2104.88,1306.46 2109.5,1308C 2153.24,1333.69 2200.24,1350.69 2250.5,1359C 2286.99,1365.27 2323.49,1367.1 2360,1364.5C 2372.47,1362.67 2384.64,1359.51 2396.5,1355C 2418.32,1344.43 2426.49,1327.59 2421,1304.5C 2413.88,1291.05 2403.72,1280.55 2390.5,1273C 2357.3,1255.91 2322.97,1241.24 2287.5,1229C 2245.76,1211.8 2207.09,1189.47 2171.5,1162C 2107.52,1103.54 2087.02,1032.71 2110,949.5C 2128.2,893.972 2163.03,852.472 2214.5,825C 2257.32,803.548 2302.32,791.715 2349.5,789.5 Z"></path>
  </g>
</svg>
